<svg width="1920" height="1505" fill="none" xmlns="http://www.w3.org/2000/svg"><path d="M-31.72 772.349c-4.484-45.744 1.546-90.446 14.326-134.469C7.768 551.204 47.677 449.26 117.34 389.516c42.286-36.265 100.058-59.818 155.63-62.827 61.032-3.304 95.568 64.313 118.335 112.707 73.347 155.907 90.902 338.071 193.058 480.708 25.026 34.942 57.691 71.112 104.091 58.513 88.515-24.036 158.435-102.105 220.048-166.15 36.525-37.967 71.421-77.543 103.818-119.195.84-1.084 25.51-32.41 26.33-29.638 2.69 9.15 2.9 21.716 3.62 30.725 4.81 60.336 7.34 120.848 11.39 181.232 8.33 124.146 16.55 252.099 45.49 373.659 4.97 20.9 17.82 80.01 46.84 84.23 30.33 4.4 73.54-31.46 93.1-45.43 87.89-62.77 169.23-135.04 250.66-205.95 222.59-193.844 445.54-385.853 679.32-565.819 47.19-36.327 95.36-71.663 140.05-111.185 26.7-23.605 46.62-49.383 70.17-75.571" stroke="#FF9494" stroke-width="3" stroke-linecap="round" stroke-linejoin="round"/></svg>