<svg width="1920" height="3496" fill="none" xmlns="http://www.w3.org/2000/svg"><path d="M-184.073 318.842c29.995-34.019 73.75-55.13 126.335-67.946 103.531-25.233 239.61-42.889 383.561.692 87.378 26.454 186.179 78.959 265.662 141.831 87.293 69.049 81.676 151.86 74.95 208.856-21.668 183.616-141.53 318.739-112.722 527.575 7.057 51.16 23.741 112 98.092 158.14 141.837 88.03 300.651 120.38 436.835 151.87 80.74 18.67 160.48 34.43 238.41 45.97 2.03.3 61.05 9.33 59.99 12.03-3.5 8.9-13.16 17.05-19.3 23.56-41.09 43.58-85.5 84.62-127.68 127.35-86.72 87.85-176.63 177.97-232.71 288.21-9.646 18.96-38.625 71.13-1.69 107.61 38.6 38.12 126.93 65.91 165.13 79.91 171.63 62.91 341.7 112.23 510.82 162.49 462.29 137.4 923.63 276.38 1390.45 435.55 94.23 32.13 189.04 66.03 282.34 93.24 55.72 16.25 103.78 23.25 157.18 34.21" stroke="#FF9494" stroke-width="3" stroke-linecap="round" stroke-linejoin="round"/></svg>