<svg width="1920" height="4329" fill="none" xmlns="http://www.w3.org/2000/svg"><path d="M1704.77 4076.55c-36.88 25.16-84.9 33.59-140.08 31.28-108.63-4.55-248.28-25.92-383.4-110.24-82.01-51.18-170.18-131.45-236.936-216.49-73.312-93.39-50.934-173.88-32.673-228.47 58.831-175.85 206.039-275.58 219.499-490.86 3.3-52.73-1.07-117.81-66.08-184.8-124.01-127.78-276.267-205.21-406.071-275.33-76.951-41.57-153.504-79.97-229.088-113.66-1.967-.88-59.158-26.69-57.551-29.06 5.303-7.83 16.611-13.15 24.064-17.85 49.913-31.47 102.619-59.47 153.448-89.79 104.501-62.33 212.636-125.99 291.033-219.27 13.48-16.04 53.018-59.5 23.466-106.21-30.878-48.82-113.577-101.59-148.942-126.39-158.888-111.39-318.969-208.85-477.904-306.99-434.446-268.25-867.632-537.81-1302.205-828.944-87.73-58.768-175.67-119.451-263.45-173.077-52.43-32.028-99.07-52.691-150.25-78.813" stroke="#FF9494" stroke-width="3" stroke-linecap="round" stroke-linejoin="round"/></svg>