<svg width="1381" height="4085" fill="none" xmlns="http://www.w3.org/2000/svg"><path d="M323.475 4014.62c-36.935-8.62-69.81-33.57-100.07-69.02-59.578-69.78-126.46-168.24-151.35-299.45-15.107-79.64-15.546-179.51-.7-268.82 16.303-98.08 79.529-129.68 124.177-149.2 143.839-62.87 290.832-28.09 433.267-141.3 34.893-27.73 73.102-67.17 77.658-145.21 8.691-148.87-30.359-286.79-61.078-406.69-18.212-71.07-38.177-140.12-60.528-205.91-.582-1.71-17.299-51.67-14.892-52.01 7.944-1.14 17.774 2.85 24.998 4.81 48.376 13.12 96.182 29.92 144.361 44.26 99.054 29.46 201.028 60.43 304.442 56.28 17.79-.72 67.69-.78 79.94-45.44 12.8-46.66-1.7-127.63-6.51-163.51-21.61-161.19-52.62-315.26-82.55-469-81.809-420.25-162.084-840.451-229.655-1273.697C791.345 343.26 778.78 254.591 761.886 170c-10.09-50.521-23.961-91.042-37.03-137.46" stroke="#FF9494" stroke-width="3" stroke-linecap="round" stroke-linejoin="round"/></svg>