<svg width="1920" height="2890" fill="none" xmlns="http://www.w3.org/2000/svg"><path d="M-150.986 270.11c33.879-28.783 74.61-46.934 119.735-58.252 88.846-22.284 200.895-38.608 300.456-3.83 60.433 21.111 121.882 63.868 165.03 115.513 47.386 56.719 17.75 126.01-4.89 173.734-72.936 153.746-208.067 268.081-249.122 442.332-10.058 42.687-15.517 93.353 28.704 131.073 84.359 71.96 198.994 97.18 296.152 121.94 57.597 14.68 115.307 26.93 172.875 35.68 1.498.23 45.013 7.1 43.36 9.37-5.458 7.48-15.513 14.41-22.307 19.92-45.493 36.91-92.804 71.72-138.891 107.92-94.752 74.44-192.683 150.81-270.242 243.61-13.336 15.96-51.951 59.91-34.112 89.98 18.639 31.42 79.411 53.64 105.089 64.91 115.369 50.61 233.659 89.88 350.912 129.96 320.507 109.55 639.797 220.43 957.227 348.13 64.08 25.77 128.06 53.02 192.91 74.69 38.73 12.95 74.26 18.25 112.79 26.8" stroke="#FF9494" stroke-width="3" stroke-linecap="round" stroke-linejoin="round"/></svg>