<svg width="1920" height="2852" fill="none" xmlns="http://www.w3.org/2000/svg"><path d="M-21.128 539.612c31.176-61.162 72.873-113.259 121.317-159.523C195.571 289 318.879 189.468 441.06 165.236c74.165-14.71 155.028-1.927 217.342 35.218 68.438 40.794 52.458 151.768 38.918 229.756-43.622 251.244-168.099 494.587-170.198 750.28-.514 62.63 6.246 132.45 66.218 150.71 114.406 34.82 251.29-12.4 368.174-48 69.286-21.11 138.086-45.45 205.826-74.26 1.77-.75 53.04-22.19 51.74-18.08-4.3 13.56-13.97 29.6-20.28 41.53-42.32 79.86-87.23 158.25-130.4 237.62-88.748 163.16-180.62 331.05-245.104 506.13-11.088 30.11-43.771 114.34-15.775 141.05 29.252 27.92 104.084 14.41 136.185 11.15 144.224-14.63 288.864-46.1 432.534-75.78 392.71-81.16 784.38-159.72 1178.24-215.08 79.51-11.17 159.29-20.37 238.61-37.42 47.38-10.19 89.17-28.11 135.19-43.88" stroke="#FF9494" stroke-width="3" stroke-linecap="round" stroke-linejoin="round"/></svg>