<svg width="1920" height="1915" fill="none" xmlns="http://www.w3.org/2000/svg"><path d="M2158.4 1556.03c-18.1 40.56-45.19 75.03-78.04 105.57-64.7 60.12-150.11 125.71-241.97 141.13-55.76 9.35-119.35.35-171.01-24.77-56.73-27.59-55.19-101.44-52.32-153.33 9.22-167.15 81.56-328.56 58.34-498.92-5.69-41.73-17.68-88.3-65.7-100.82-91.6-23.89-192.56 6.76-279.22 29.78-51.38 13.65-102.07 29.46-151.5 48.25-1.29.49-38.74 14.48-38.13 11.75 1.99-9.01 7.89-19.65 11.6-27.56 24.87-52.96 51.88-104.93 77.46-157.554 52.58-108.192 107.11-219.514 139.82-335.792 5.63-19.994 22.65-75.924-1.54-93.895-25.26-18.776-81.65-10.223-106.09-8.244-109.78 8.892-218.26 28.993-326.151 47.916-294.927 51.728-589.3 101.737-887.616 136.271-60.217 6.971-120.84 12.623-180.351 23.512-35.542 6.504-66.024 18.195-99.978 28.428" stroke="#FF9494" stroke-width="3" stroke-linecap="round" stroke-linejoin="round"/></svg>