<svg width="1920" height="3361" fill="none" xmlns="http://www.w3.org/2000/svg"><path d="M-18.721 2789.16c-25.972-38.07-37.734-84.44-40.366-136.13-5.181-101.78 2.218-230.57 67.089-346.82 39.377-70.56 104.602-143.09 175.978-194.81 78.388-56.8 153.289-25.12 204.345-.73 164.481 78.59 267.518 230.44 463.854 271.46 48.096 10.05 106.727 14.49 161.891-37.96 105.23-100.05 162.38-233.36 214.83-346.46 31.09-67.05 59.35-134.14 83.42-200.94.63-1.74 19.13-52.24 21.41-50.42 7.55 6.03 13.35 17.39 18.25 25.03 32.81 51.18 62.72 104.54 94.56 156.43 65.47 106.69 132.46 216.98 223.75 303.13 15.7 14.82 58.48 57.8 98.31 36.1 41.61-22.68 82.37-93.67 101.82-123.74 87.38-135.08 162.03-273.12 237.38-409.99 205.98-374.14 413.25-746.914 639.97-1118.161 45.76-74.939 93.25-149.83 134.34-225.506 24.55-45.197 39.29-86.429 58.58-131.23" stroke="#FF9494" stroke-width="3" stroke-linecap="round" stroke-linejoin="round"/></svg>